<svg width="32" height="32" viewBox="0 0 32 32" fill="none" xmlns="http://www.w3.org/2000/svg">
<path d="M16 0C11.6563 0 11.1125 0.01875 9.40625 0.09375C7.70625 0.16875 6.5375 0.44375 5.525 0.8375C4.46875 1.25 3.575 1.79375 2.6875 2.6875C1.79375 3.575 1.25 4.46875 0.8375 5.51875C0.44375 6.5375 0.16875 7.7 0.09375 9.4C0.01875 11.1125 0 11.6562 0 16C0 20.3438 0.01875 20.8875 0.09375 22.5938C0.16875 24.2938 0.44375 25.4625 0.8375 26.475C1.25 27.5313 1.79375 28.425 2.6875 29.3125C3.575 30.2 4.46875 30.75 5.51875 31.1562C6.5375 31.55 7.7 31.825 9.4 31.9C11.1063 31.975 11.65 31.9937 15.9938 31.9937C20.3375 31.9937 20.8813 31.975 22.5875 31.9C24.2875 31.825 25.4563 31.55 26.4688 31.1562C27.5188 30.75 28.4125 30.2 29.3 29.3125C30.1875 28.425 30.7375 27.5313 31.1438 26.4813C31.5375 25.4625 31.8125 24.3 31.8875 22.6C31.9625 20.8938 31.9813 20.35 31.9813 16.0063C31.9813 11.6625 31.9625 11.1188 31.8875 9.4125C31.8125 7.7125 31.5375 6.54375 31.1438 5.53125C30.75 4.46875 30.2063 3.575 29.3125 2.6875C28.425 1.8 27.5313 1.25 26.4813 0.84375C25.4625 0.45 24.3 0.175 22.6 0.1C20.8875 0.01875 20.3438 0 16 0Z" fill="url(#paint0_linear_66_7)"/>
<path d="M16 0C11.6563 0 11.1125 0.01875 9.40625 0.09375C7.70625 0.16875 6.5375 0.44375 5.525 0.8375C4.46875 1.25 3.575 1.79375 2.6875 2.6875C1.79375 3.575 1.25 4.46875 0.8375 5.51875C0.44375 6.5375 0.16875 7.7 0.09375 9.4C0.01875 11.1125 0 11.6562 0 16C0 20.3438 0.01875 20.8875 0.09375 22.5938C0.16875 24.2938 0.44375 25.4625 0.8375 26.475C1.25 27.5313 1.79375 28.425 2.6875 29.3125C3.575 30.2 4.46875 30.75 5.51875 31.1562C6.5375 31.55 7.7 31.825 9.4 31.9C11.1063 31.975 11.65 31.9937 15.9938 31.9937C20.3375 31.9937 20.8813 31.975 22.5875 31.9C24.2875 31.825 25.4563 31.55 26.4688 31.1562C27.5188 30.75 28.4125 30.2 29.3 29.3125C30.1875 28.425 30.7375 27.5313 31.1438 26.4813C31.5375 25.4625 31.8125 24.3 31.8875 22.6C31.9625 20.8938 31.9813 20.35 31.9813 16.0063C31.9813 11.6625 31.9625 11.1188 31.8875 9.4125C31.8125 7.7125 31.5375 6.54375 31.1438 5.53125C30.75 4.46875 30.2063 3.575 29.3125 2.6875C28.425 1.8 27.5313 1.25 26.4813 0.84375C25.4625 0.45 24.3 0.175 22.6 0.1C20.8875 0.01875 20.3438 0 16 0Z" fill="url(#paint1_linear_66_7)" fill-opacity="0.1"/>
<path d="M16 7.78125C11.4625 7.78125 7.78125 11.4625 7.78125 16C7.78125 20.5375 11.4625 24.2188 16 24.2188C20.5375 24.2188 24.2188 20.5375 24.2188 16C24.2188 11.4625 20.5375 7.78125 16 7.78125ZM16 21.3312C13.0563 21.3312 10.6687 18.9438 10.6687 16C10.6687 13.0563 13.0563 10.6687 16 10.6687C18.9438 10.6687 21.3312 13.0563 21.3312 16C21.3312 18.9438 18.9438 21.3312 16 21.3312Z" fill="white"/>
<path d="M26.4625 7.45619C26.4625 8.51869 25.6 9.37495 24.5438 9.37495C23.4813 9.37495 22.625 8.51244 22.625 7.45619C22.625 6.39369 23.4875 5.53744 24.5438 5.53744C25.6 5.53744 26.4625 6.39994 26.4625 7.45619Z" fill="white"/>
<defs>
<linearGradient id="paint0_linear_66_7" x1="-2.93655e-07" y1="34" x2="32" y2="-3.1836e-07" gradientUnits="userSpaceOnUse">
<stop offset="0.121492" stop-color="#FF9900"/>
<stop offset="0.91373" stop-color="#FF008A"/>
</linearGradient>
<linearGradient id="paint1_linear_66_7" x1="0" y1="0" x2="32" y2="32" gradientUnits="userSpaceOnUse">
<stop stop-color="#8000FF"/>
<stop offset="1" stop-color="#FF0000"/>
</linearGradient>
</defs>
</svg>
