<svg width="24" height="24" viewBox="0 0 24 24" fill="none" xmlns="http://www.w3.org/2000/svg">
<path d="M6 1L3 5V19C3 19.5304 3.21071 20.0391 3.58579 20.4142C3.96086 20.7893 4.46957 21 5 21H19C19.5304 21 20.0391 20.7893 20.4142 20.4142C20.7893 20.0391 21 19.5304 21 19V5L18 1H6Z" stroke="#142340" stroke-width="1.8" stroke-linecap="round" stroke-linejoin="round"/>
<path d="M3 5H21" stroke="#142340" stroke-width="1.8" stroke-linecap="round" stroke-linejoin="round"/>
<path d="M16 9C16 10.0609 15.5786 11.0783 14.8284 11.8284C14.0783 12.5786 13.0609 13 12 13C10.9391 13 9.92172 12.5786 9.17157 11.8284C8.42143 11.0783 8 10.0609 8 9" stroke="#142340" stroke-width="1.8" stroke-linecap="round" stroke-linejoin="round"/>
</svg>
