<svg width="24" height="24" viewBox="0 0 24 24" fill="none" xmlns="http://www.w3.org/2000/svg">
<path d="M11.0715 2.82119C11.4068 1.98305 12.5932 1.98305 12.9285 2.82119L14.765 7.41255C14.9085 7.77129 15.2459 8.01527 15.6315 8.03923L20.4905 8.3411C21.3934 8.39719 21.7637 9.52787 21.0689 10.1072L17.4703 13.1078C17.1817 13.3485 17.0524 13.7307 17.1355 14.0972L18.2525 19.0185C18.4512 19.8942 17.4847 20.5677 16.732 20.0781L12.5453 17.3547C12.2137 17.139 11.7863 17.139 11.4547 17.3547L7.26797 20.0781C6.51529 20.5677 5.54876 19.8942 5.7475 19.0185L6.86446 14.0972C6.94764 13.7307 6.81831 13.3485 6.52967 13.1078L2.93109 10.1072C2.23631 9.52788 2.60661 8.39719 3.50949 8.3411L8.36851 8.03923C8.75415 8.01527 9.09148 7.77129 9.23498 7.41255L11.0715 2.82119Z" stroke="#142340" stroke-width="1.8" stroke-linecap="round" stroke-linejoin="round"/>
</svg>
