<svg width="32" height="32" viewBox="0 0 32 32" fill="none" xmlns="http://www.w3.org/2000/svg">
<g clip-path="url(#clip0_17_55)">
<path d="M16 32C24.8366 32 32 24.8366 32 16C32 7.16344 24.8366 0 16 0C7.16344 0 0 7.16344 0 16C0 24.8366 7.16344 32 16 32Z" fill="url(#paint0_linear_17_55)"/>
<path fill-rule="evenodd" clip-rule="evenodd" d="M7.24248 15.8311C11.9068 13.7989 15.0171 12.4592 16.5733 11.8119C21.0167 9.96375 21.94 9.64271 22.5418 9.63211C22.6741 9.62978 22.9701 9.66258 23.1618 9.81813C23.3237 9.94947 23.3682 10.1269 23.3895 10.2514C23.4108 10.376 23.4373 10.6596 23.4163 10.8813C23.1755 13.4113 22.1336 19.5509 21.6035 22.3845C21.3792 23.5835 20.9376 23.9855 20.5101 24.0248C19.5809 24.1103 18.8754 23.4108 17.9754 22.8209C16.5672 21.8978 15.7717 21.3232 14.4048 20.4224C12.8251 19.3814 13.8491 18.8092 14.7494 17.8742C14.985 17.6295 19.0789 13.9058 19.1581 13.568C19.168 13.5258 19.1772 13.3683 19.0836 13.2851C18.9901 13.202 18.852 13.2304 18.7524 13.253C18.6111 13.2851 16.3615 14.772 12.0035 17.7138C11.3649 18.1523 10.7866 18.3659 10.2683 18.3547C9.69706 18.3424 8.59814 18.0317 7.78121 17.7661C6.77921 17.4404 5.98284 17.2682 6.05218 16.7151C6.0883 16.427 6.48507 16.1323 7.24248 15.8311Z" fill="white"/>
</g>
<defs>
<linearGradient id="paint0_linear_17_55" x1="16" y1="0" x2="16" y2="31.7627" gradientUnits="userSpaceOnUse">
<stop stop-color="#2AABEE"/>
<stop offset="1" stop-color="#229ED9"/>
</linearGradient>
<clipPath id="clip0_17_55">
<rect width="32" height="32" fill="white"/>
</clipPath>
</defs>
</svg>
