<svg width="17" height="16" viewBox="0 0 17 16" fill="none" xmlns="http://www.w3.org/2000/svg">
<path d="M5.51705 14.6666H3.51705C3.16343 14.6666 2.82429 14.5262 2.57424 14.2761C2.32419 14.0261 2.18372 13.6869 2.18372 13.3333V8.66665C2.18372 8.31302 2.32419 7.97389 2.57424 7.72384C2.82429 7.47379 3.16343 7.33331 3.51705 7.33331H5.51705M10.1837 5.99998V3.33331C10.1837 2.80288 9.973 2.29417 9.59793 1.9191C9.22286 1.54403 8.71415 1.33331 8.18372 1.33331L5.51705 7.33331V14.6666H13.037C13.3586 14.6703 13.6706 14.5576 13.9157 14.3493C14.1607 14.1411 14.3222 13.8513 14.3704 13.5333L15.2904 7.53331C15.3194 7.34222 15.3065 7.1471 15.2526 6.96148C15.1987 6.77586 15.1051 6.60418 14.9783 6.45832C14.8515 6.31247 14.6944 6.19593 14.5181 6.11679C14.3418 6.03765 14.1503 5.99779 13.957 5.99998H10.1837Z" stroke="#636F88" stroke-width="1.25" stroke-linecap="round" stroke-linejoin="round"/>
</svg>
