<svg width="24" height="24" viewBox="0 0 24 24" fill="none" xmlns="http://www.w3.org/2000/svg">
<path d="M15 2H2C1.44772 2 1 2.44772 1 3V14C1 14.5523 1.44772 15 2 15H15C15.5523 15 16 14.5523 16 14V3C16 2.44772 15.5523 2 15 2Z" stroke="#142340" stroke-width="1.8" stroke-linecap="round" stroke-linejoin="round"/>
<path d="M16 8C16 7.44772 16.4477 7 17 7H19.5858C19.851 7 20.1054 7.10536 20.2929 7.29289L22.7071 9.70711C22.8946 9.89464 23 10.149 23 10.4142V14C23 14.5523 22.5523 15 22 15H17C16.4477 15 16 14.5523 16 14V8Z" stroke="#142340" stroke-width="1.8" stroke-linecap="round" stroke-linejoin="round"/>
<path d="M5.5 20C6.88071 20 8 18.8807 8 17.5C8 16.1193 6.88071 15 5.5 15C4.11929 15 3 16.1193 3 17.5C3 18.8807 4.11929 20 5.5 20Z" stroke="#142340" stroke-width="1.8" stroke-linecap="round" stroke-linejoin="round"/>
<path d="M18.5 20C19.8807 20 21 18.8807 21 17.5C21 16.1193 19.8807 15 18.5 15C17.1193 15 16 16.1193 16 17.5C16 18.8807 17.1193 20 18.5 20Z" stroke="#142340" stroke-width="1.8" stroke-linecap="round" stroke-linejoin="round"/>
</svg>
