<svg width="32" height="32" viewBox="0 0 32 32" fill="none" xmlns="http://www.w3.org/2000/svg">
<g clip-path="url(#clip0_17_56)">
<path d="M0 15.3333C0 8.1056 0 4.49067 2.24533 2.24533C4.49067 0 8.10667 0 15.3333 0H16.6667C23.8944 0 27.5093 0 29.7547 2.24533C32 4.49067 32 8.10667 32 15.3333V16.6667C32 23.8944 32 27.5093 29.7547 29.7547C27.5093 32 23.8933 32 16.6667 32H15.3333C8.1056 32 4.49067 32 2.24533 29.7547C0 27.5093 0 23.8933 0 16.6667V15.3333Z" fill="#2787F5"/>
<path fill-rule="evenodd" clip-rule="evenodd" d="M8.66661 10H6.33381C5.66715 10 5.53381 10.3136 5.53381 10.6603C5.53381 11.2779 6.32421 14.3435 9.21701 18.3968C11.1445 21.1659 13.8613 22.6667 16.3327 22.6667C17.8165 22.6667 17.9999 22.3328 17.9999 21.76V19.6672C17.9999 19.0005 18.1407 18.8672 18.6101 18.8672C18.9567 18.8672 19.5487 19.04 20.9343 20.3744C22.5162 21.9573 22.7765 22.6667 23.6661 22.6667H25.9999C26.6666 22.6667 27.0005 22.3328 26.8074 21.6747C26.5973 21.0197 25.8421 20.0683 24.8394 18.9408C24.2954 18.2987 23.4805 17.6064 23.233 17.2597C22.8863 16.8149 22.9855 16.6176 23.233 16.2219C23.233 16.2219 26.0757 12.2176 26.3722 10.8576C26.5215 10.3637 26.3722 10 25.6661 10H23.3333C22.7402 10 22.4661 10.3136 22.3178 10.6603C22.3178 10.6603 21.1317 13.552 19.4506 15.4304C18.9066 15.9744 18.6591 16.1483 18.3626 16.1483C18.2143 16.1483 17.9999 15.9744 17.9999 15.4805V10.8576C17.9999 10.2645 17.8282 10 17.3333 10H13.6661C13.2959 10 13.073 10.2752 13.073 10.5365C13.073 11.0987 13.9135 11.2288 13.9999 12.8107V16.2464C13.9999 17.0005 13.8645 17.1371 13.5669 17.1371C12.7765 17.1371 10.8522 14.2315 9.71088 10.9077C9.48688 10.2613 9.26288 10 8.66661 10Z" fill="white"/>
</g>
<defs>
<clipPath id="clip0_17_56">
<rect width="32" height="32" fill="white"/>
</clipPath>
</defs>
</svg>
