<svg width="102" height="102" viewBox="0 0 102 102" fill="none" xmlns="http://www.w3.org/2000/svg">
<path d="M83 3C78.7565 3 74.6869 4.68571 71.6863 7.68629C68.6857 10.6869 67 14.7565 67 19V83C67 87.2435 68.6857 91.3131 71.6863 94.3137C74.6869 97.3143 78.7565 99 83 99C87.2435 99 91.3131 97.3143 94.3137 94.3137C97.3143 91.3131 99 87.2435 99 83C99 78.7565 97.3143 74.6869 94.3137 71.6863C91.3131 68.6857 87.2435 67 83 67H19C14.7565 67 10.6869 68.6857 7.68629 71.6863C4.68571 74.6869 3 78.7565 3 83C3 87.2435 4.68571 91.3131 7.68629 94.3137C10.6869 97.3143 14.7565 99 19 99C23.2435 99 27.3131 97.3143 30.3137 94.3137C33.3143 91.3131 35 87.2435 35 83V19C35 14.7565 33.3143 10.6869 30.3137 7.68629C27.3131 4.68571 23.2435 3 19 3C14.7565 3 10.6869 4.68571 7.68629 7.68629C4.68571 10.6869 3 14.7565 3 19C3 23.2435 4.68571 27.3131 7.68629 30.3137C10.6869 33.3143 14.7565 35 19 35H83C87.2435 35 91.3131 33.3143 94.3137 30.3137C97.3143 27.3131 99 23.2435 99 19C99 14.7565 97.3143 10.6869 94.3137 7.68629C91.3131 4.68571 87.2435 3 83 3Z" stroke="#142340" stroke-width="6" stroke-linecap="round" stroke-linejoin="round"/>
</svg>
